HIERARCHY
ROOT Hips
{
	OFFSET 0.000000 0.000000 0.000000
	CHANNELS 6 Xposition Yposition Zposition Zrotation Yrotation Xrotation 
	JOINT LowerBack
	{
		OFFSET 0.000000 0.000000 0.000000
		CHANNELS 3 Zrotation Yrotation Xrotation
		JOINT Spine
		{
			OFFSET 0.028270 2.035590 -0.193380
			CHANNELS 3 Zrotation Yrotation Xrotation
			JOINT Spine1
			{
				OFFSET 0.056720 2.048850 -0.042750
				CHANNELS 3 Zrotation Yrotation Xrotation
				JOINT Neck
				{
					OFFSET 0.000000 0.000000 0.000000
					CHANNELS 3 Zrotation Yrotation Xrotation
					JOINT Neck1
					{
						OFFSET -0.054170 1.746240 0.172020
						CHANNELS 3 Zrotation Yrotation Xrotation
						JOINT Head
						{
							OFFSET 0.104070 1.761360 -0.123970
							CHANNELS 3 Zrotation Yrotation Xrotation
							End Site
							{
								OFFSET 0.000000 0.000000 0.000000
							}
						}
					}
				}
				JOINT LeftShoulder
				{
					OFFSET 0.000000 0.000000 0.000000
					CHANNELS 3 Zrotation Yrotation Xrotation
					JOINT LeftArm
					{
						OFFSET 3.362410 1.200890 -0.311210
						CHANNELS 3 Zrotation Yrotation Xrotation
						JOINT LeftForeArm
						{
							OFFSET 4.983000 -0.000000 -0.000000
							CHANNELS 3 Zrotation Yrotation Xrotation
							JOINT LeftHand
							{
								OFFSET 3.483560 -0.000000 -0.000000
								CHANNELS 3 Zrotation Yrotation Xrotation
								JOINT LeftFingerBase
								{
									OFFSET 0.000000 0.000000 0.000000
									CHANNELS 3 Zrotation Yrotation Xrotation
									JOINT LeftHandIndex1
									{
										OFFSET 0.715260 -0.000000 -0.000000
										CHANNELS 3 Zrotation Yrotation Xrotation
										End Site
										{
											OFFSET 0.000000 0.000000 0.000000
										}
									}
								}
								JOINT LThumb
								{
									OFFSET 0.000000 0.000000 0.000000
									CHANNELS 3 Zrotation Yrotation Xrotation
									End Site
									{
										OFFSET 0.000000 0.000000 0.000000
									}
								}
							}
						}
					}
				}
				JOINT RightShoulder
				{
					OFFSET 0.000000 0.000000 0.000000
					CHANNELS 3 Zrotation Yrotation Xrotation
					JOINT RightArm
					{
						OFFSET -3.136600 1.374050 -0.404650
						CHANNELS 3 Zrotation Yrotation Xrotation
						JOINT RightForeArm
						{
							OFFSET -5.241900 -0.000000 -0.000000
							CHANNELS 3 Zrotation Yrotation Xrotation
							JOINT RightHand
							{
								OFFSET -3.444170 -0.000000 -0.000000
								CHANNELS 3 Zrotation Yrotation Xrotation
								JOINT RightFingerBase
								{
									OFFSET 0.000000 0.000000 0.000000
									CHANNELS 3 Zrotation Yrotation Xrotation
									JOINT RightHandIndex1
									{
										OFFSET -0.622530 -0.000000 -0.000000
										CHANNELS 3 Zrotation Yrotation Xrotation
										End Site
										{
											OFFSET 0.000000 0.000000 0.000000
										}
									}
								}
								JOINT RThumb
								{
									OFFSET 0.000000 0.000000 0.000000
									CHANNELS 3 Zrotation Yrotation Xrotation
									End Site
									{
										OFFSET 0.000000 0.000000 0.000000
									}
								}
							}
						}
					}
				}
			}
		}
	}
}
}
MOTION
Frames: 7
Frame Time: 0.008333
-2.746703 18.062682 -0.624548 -173.222432 80.595556 -159.153042 1.231144 4.880041 -5.838018 -1.349585 4.431902 -4.525837 -8.139263 4.602705 -1.262473 8.554938 -3.795709 -6.396019 -2.561770 -0.221754 0.371847 0.000000 0.000000 0.000000 6.188549 23.914040 -0.730790 -55.800656 26.239566 13.404052 -179.844856 -67.166522 179.955448 30.050148 -24.232253 -6.900144 -0.606729 0.679363 0.000000 0.000000 0.000000 0.000000 0.000000 0.000000 0.000000 0.460841 6.581363 -4.342191 86.464822 22.674170 35.909047 179.780303 62.020863 179.916092 -7.678573 26.591431 -1.963177 0.174257 -1.483459 -0.000000 0.000000 0.000000 0.000000 0.000000 0.000000 0.000000 
-2.539760 18.082325 -0.673535 -173.753068 79.737883 -159.944768 1.271794 4.844668 -5.753938 -1.332844 4.399706 -4.495544 -8.110593 4.570924 -1.192591 8.497446 -3.832568 -6.471362 -2.521288 -0.217722 0.352859 0.000000 0.000000 0.000000 6.387861 24.271163 -0.712629 -55.682630 26.710761 12.698923 -179.849972 -66.467757 179.953124 30.073096 -24.281229 -6.923275 -0.610764 0.688920 0.000000 0.000000 0.000000 0.000000 0.000000 0.000000 0.000000 0.217865 6.559969 -4.442308 86.987557 22.679470 36.283203 179.790720 62.212446 179.916817 -7.705342 26.509589 -1.963857 0.176134 -1.476665 -0.000000 0.000000 0.000000 0.000000 0.000000 0.000000 0.000000 
-2.335085 18.090669 -0.723348 -174.201875 78.842699 -160.676084 1.331279 4.782053 -5.642825 -1.310681 4.340423 -4.457102 -8.083881 4.512826 -1.118496 8.447687 -3.915373 -6.563959 -2.489152 -0.214024 0.328696 0.000000 0.000000 0.000000 6.534729 24.598895 -0.697875 -55.611554 27.103983 12.007845 -179.857136 -65.756222 179.950429 30.091233 -24.321015 -6.943087 -0.615325 0.699704 0.000000 0.000000 0.000000 0.000000 0.000000 0.000000 0.000000 0.034576 6.488698 -4.533074 87.496574 22.671463 36.618607 179.791006 62.439162 179.917769 -7.723521 26.438135 -1.962955 0.177952 -1.469474 0.000000 0.000000 0.000000 0.000000 0.000000 0.000000 0.000000 
-2.132574 18.087946 -0.773679 -174.627025 77.912215 -161.404899 1.398332 4.696199 -5.503190 -1.285878 4.259109 -4.411157 -8.060610 4.433666 -1.042831 8.404229 -4.043220 -6.671555 -2.465858 -0.210734 0.299899 0.000000 0.000000 0.000000 6.629821 24.893168 -0.688493 -55.585845 27.395474 11.345912 -179.865970 -65.041049 179.947400 30.095172 -24.350277 -6.956981 -0.620305 0.711703 0.000000 0.000000 0.000000 0.000000 0.000000 0.000000 0.000000 -0.090677 6.370036 -4.612868 87.990619 22.632296 36.903211 179.783726 62.695779 179.918896 -7.729275 26.370132 -1.959166 0.179433 -1.461808 0.000000 0.000000 0.000000 0.000000 0.000000 0.000000 0.000000 
-1.932034 18.074193 -0.824231 -175.066765 76.951942 -162.167515 1.461228 4.591821 -5.334746 -1.261191 4.161546 -4.358159 -8.040965 4.339463 -0.966511 8.365162 -4.213625 -6.792680 -2.451316 -0.207870 0.266799 0.000000 0.000000 0.000000 6.682197 25.154818 -0.685838 -55.611005 27.558089 10.731082 -179.876473 -64.333201 179.944020 30.078333 -24.370754 -6.963858 -0.625582 0.725049 0.000000 0.000000 0.000000 0.000000 0.000000 0.000000 0.000000 -0.162806 6.206943 -4.681104 88.468811 22.546238 37.126162 179.772357 62.979215 179.920098 -7.724597 26.299127 -1.952292 0.180471 -1.453515 0.000000 0.000000 0.000000 0.000000 0.000000 0.000000 0.000000 
-1.733313 18.049575 -0.874762 -175.497414 75.970866 -162.938947 1.522255 4.474605 -5.137297 -1.236835 4.053191 -4.299440 -8.025645 4.235710 -0.894914 8.328172 -4.422320 -6.922714 -2.445686 -0.205520 0.230728 0.000000 0.000000 0.000000 6.689393 25.370709 -0.691961 -55.685016 27.596154 10.168358 -179.888573 -63.624471 179.940323 30.030116 -24.383090 -6.961417 -0.631062 0.739857 0.000000 0.000000 0.000000 0.000000 0.000000 0.000000 0.000000 -0.187579 6.006536 -4.735894 88.930257 22.401112 37.280842 179.759171 63.284761 179.921261 -7.716724 26.219846 -1.944023 0.181198 -1.444583 0.000000 0.000000 0.000000 0.000000 0.000000 0.000000 0.000000 
-1.536221 18.014202 -0.924867 -175.941024 74.981635 -163.737087 1.571211 4.348800 -4.913252 -1.215012 3.938999 -4.235828 -8.013932 4.127442 -0.828692 8.292983 -4.663632 -7.059886 -2.448858 -0.203706 0.192133 0.000000 0.000000 0.000000 6.660819 25.542365 -0.707128 -55.814281 27.497100 9.668746 -179.902264 -62.922377 179.936307 29.946564 -24.391150 -6.949861 -0.636605 0.756246 0.000000 0.000000 0.000000 0.000000 0.000000 0.000000 0.000000 -0.167323 5.774839 -4.776376 89.373102 22.191241 37.365145 179.746652 63.613507 179.922283 -7.715482 26.129475 -1.936556 0.181865 -1.434940 0.000000 0.000000 0.000000 0.000000 0.000000 0.000000 0.000000 
